<svg width="202" height="202" viewBox="0 0 202 202" fill="none" xmlns="http://www.w3.org/2000/svg">
<path d="M196.389 106.611C196.389 95.041 194.33 83.9478 190.554 73.6851C187.973 103.923 171.852 119.455 155.008 112.222C139.229 105.444 149.862 79.0213 150.648 66.4131C151.972 45.0404 150.58 20.5759 111.757 0.235672C127.889 31.0968 113.626 50.27 98.6664 51.4371C82.0687 52.7332 66.8682 37.1736 72.4793 11.9236C54.3105 25.3117 53.7831 47.846 59.3886 62.4236C65.2354 77.6185 59.1529 90.2435 44.8951 91.6463C28.9595 93.2174 20.1052 74.5829 28.2694 44.8889C14.1406 61.5258 5.61169 83.0725 5.61169 106.611C5.61169 159.294 48.3179 202 101.001 202C153.683 202 196.389 159.294 196.389 106.611Z" fill="#F4900C"/>
<path d="M159.322 134.661C160.152 151.966 144.952 158.749 136.771 155.472C124.954 150.742 128.124 142.617 125.083 125.784C122.042 108.951 110.354 97.2628 93.0546 92.1174C105.68 127.653 86.0576 140.749 75.7724 143.089C65.2684 145.479 54.7139 143.083 53.5075 120.605C41.2528 132.804 33.6666 149.682 33.6666 168.333C33.6666 170.398 33.7957 172.429 33.9752 174.449C51.2013 191.473 74.8634 202 101 202C127.137 202 150.799 191.473 168.025 174.449C168.204 172.429 168.333 170.398 168.333 168.333C168.333 156.062 165.056 144.564 159.322 134.661Z" fill="#FFCC4D"/>
</svg>
