<svg width="153" height="91" viewBox="0 0 153 91" fill="none" xmlns="http://www.w3.org/2000/svg">
<path d="M2.52 48.08C2.52 44.96 3.072 41.888 4.176 38.864C5.28 35.84 6.888 33.104 9 30.656C11.16 28.208 13.752 26.264 16.776 24.824C19.848 23.336 23.352 22.592 27.288 22.592C31.896 22.592 35.88 23.624 39.24 25.688C42.6 27.752 45.096 30.44 46.728 33.752L40.392 38C39.432 35.936 38.208 34.328 36.72 33.176C35.28 31.976 33.696 31.136 31.968 30.656C30.288 30.128 28.632 29.864 27 29.864C24.312 29.864 21.96 30.416 19.944 31.52C17.928 32.576 16.224 33.992 14.832 35.768C13.488 37.544 12.456 39.536 11.736 41.744C11.064 43.952 10.728 46.16 10.728 48.368C10.728 51.68 11.424 54.776 12.816 57.656C14.256 60.488 16.2 62.792 18.648 64.568C21.144 66.296 24 67.16 27.216 67.16C28.848 67.16 30.552 66.872 32.328 66.296C34.104 65.72 35.736 64.832 37.224 63.632C38.712 62.384 39.912 60.752 40.824 58.736L47.52 62.552C46.464 65.096 44.808 67.256 42.552 69.032C40.344 70.808 37.848 72.152 35.064 73.064C32.328 73.976 29.616 74.432 26.928 74.432C23.328 74.432 20.04 73.688 17.064 72.2C14.088 70.664 11.52 68.648 9.36 66.152C7.2 63.608 5.52 60.776 4.32 57.656C3.12 54.488 2.52 51.296 2.52 48.08Z" fill="#EF72AE"/>
<path d="M75.4648 68H66.9219V14H75.4648V68Z" fill="#EF72AE"/>
<path d="M93.672 68.72C89.736 68.72 86.304 67.832 83.376 66.056C80.496 64.232 78.264 61.856 76.68 58.928C75.096 55.952 74.304 52.712 74.304 49.208C74.304 45.704 75.096 42.488 76.68 39.56C78.312 36.584 80.568 34.208 83.448 32.432C86.376 30.608 89.784 29.696 93.672 29.696C97.56 29.696 100.944 30.608 103.824 32.432C106.752 34.208 109.008 36.584 110.592 39.56C112.224 42.488 113.04 45.704 113.04 49.208C113.04 52.712 112.248 55.952 110.664 58.928C109.08 61.856 106.824 64.232 103.896 66.056C101.016 67.832 97.608 68.72 93.672 68.72ZM82.44 49.28C82.44 51.68 82.944 53.84 83.952 55.76C84.96 57.68 86.304 59.192 87.984 60.296C89.664 61.4 91.56 61.952 93.672 61.952C95.736 61.952 97.608 61.4 99.288 60.296C101.016 59.144 102.384 57.608 103.392 55.688C104.4 53.768 104.904 51.608 104.904 49.208C104.904 46.808 104.4 44.648 103.392 42.728C102.384 40.808 101.016 39.296 99.288 38.192C97.608 37.04 95.736 36.464 93.672 36.464C91.608 36.464 89.712 37.04 87.984 38.192C86.304 39.296 84.96 40.832 83.952 42.8C82.944 44.72 82.44 46.88 82.44 49.28Z" fill="#EF72AE"/>
<path d="M127.92 37.184C124.848 37.28 122.112 38 119.712 39.344C117.36 40.64 115.68 42.512 114.672 44.96V68H106.752V30.344H114.096V38.768C115.392 36.176 117.096 34.112 119.208 32.576C121.32 30.992 123.552 30.128 125.904 29.984C126.336 29.984 126.72 29.984 127.056 29.984C127.392 29.984 127.68 30.008 127.92 30.056V37.184Z" fill="#EF72AE"/>
<path d="M114.016 56.984C114.016 54.584 114.688 52.496 116.032 50.72C117.376 48.896 119.248 47.504 121.648 46.544C124.096 45.536 126.904 45.032 130.072 45.032C131.752 45.032 133.456 45.176 135.184 45.464C136.96 45.704 138.52 46.064 139.864 46.544V44.168C139.864 41.528 139.072 39.464 137.488 37.976C135.904 36.488 133.624 35.744 130.648 35.744C128.584 35.744 126.592 36.104 124.672 36.824C122.752 37.544 120.76 38.6 118.696 39.992L116.032 34.664C118.528 33.032 121.024 31.808 123.52 30.992C126.064 30.128 128.728 29.696 131.512 29.696C136.552 29.696 140.512 31.04 143.392 33.728C146.32 36.368 147.784 40.136 147.784 45.032V59.072C147.784 59.984 147.928 60.632 148.216 61.016C148.552 61.4 149.104 61.616 149.872 61.664V68C149.152 68.144 148.504 68.24 147.928 68.288C147.352 68.336 146.872 68.36 146.488 68.36C144.76 68.36 143.464 67.952 142.6 67.136C141.784 66.272 141.304 65.312 141.16 64.256L140.944 62.096C139.312 64.208 137.224 65.84 134.68 66.992C132.136 68.144 129.568 68.72 126.976 68.72C124.48 68.72 122.248 68.216 120.28 67.208C118.312 66.152 116.776 64.736 115.672 62.96C114.568 61.184 114.016 59.192 114.016 56.984ZM137.992 59.288C139.24 58.04 139.864 56.864 139.864 55.76V51.44C137.032 50.384 134.152 49.856 131.224 49.856C128.344 49.856 125.992 50.456 124.168 51.656C122.392 52.808 121.504 54.368 121.504 56.336C121.504 57.968 122.152 59.48 123.448 60.872C124.792 62.216 126.712 62.888 129.208 62.888C130.888 62.888 132.52 62.552 134.104 61.88C135.688 61.208 136.984 60.344 137.992 59.288Z" fill="#EF72AE"/>
<path d="M49.672 68.72C45.736 68.72 42.304 67.832 39.376 66.056C36.496 64.232 34.264 61.856 32.68 58.928C31.096 55.952 30.304 52.712 30.304 49.208C30.304 45.704 31.096 42.488 32.68 39.56C34.312 36.584 36.568 34.208 39.448 32.432C42.376 30.608 45.784 29.696 49.672 29.696C53.56 29.696 56.944 30.608 59.824 32.432C62.752 34.208 65.008 36.584 66.592 39.56C68.224 42.488 69.04 45.704 69.04 49.208C69.04 52.712 68.248 55.952 66.664 58.928C65.08 61.856 62.824 64.232 59.896 66.056C57.016 67.832 53.608 68.72 49.672 68.72ZM38.44 49.28C38.44 51.68 38.944 53.84 39.952 55.76C40.96 57.68 42.304 59.192 43.984 60.296C45.664 61.4 47.56 61.952 49.672 61.952C51.736 61.952 53.608 61.4 55.288 60.296C57.016 59.144 58.384 57.608 59.392 55.688C60.4 53.768 60.904 51.608 60.904 49.208C60.904 46.808 60.4 44.648 59.392 42.728C58.384 40.808 57.016 39.296 55.288 38.192C53.608 37.04 51.736 36.464 49.672 36.464C47.608 36.464 45.712 37.04 43.984 38.192C42.304 39.296 40.96 40.832 39.952 42.8C38.944 44.72 38.44 46.88 38.44 49.28Z" fill="#EF72AE"/>
</svg>
