<svg width="704" height="361" viewBox="0 0 704 361" fill="none" xmlns="http://www.w3.org/2000/svg">
<path d="M349.873 291.093C275.858 291.093 215.809 306.765 215.809 325.85C215.809 345.091 275.858 360.763 349.873 360.763C415.818 360.763 470.747 348.349 481.919 332.057C483.316 330.04 483.937 328.022 483.937 326.005C483.937 306.765 423.887 291.093 349.873 291.093ZM349.873 330.815C307.202 330.815 272.755 325.695 272.755 319.333C272.755 319.333 272.755 319.178 272.755 318.868C272.755 318.712 272.755 318.712 272.91 318.557C272.91 318.557 272.91 318.402 273.065 318.402C276.013 312.506 309.374 307.851 349.873 307.851C388.975 307.851 421.249 312.195 426.215 317.781C426.68 318.247 426.835 318.712 426.835 319.178V319.333C426.99 325.695 392.388 330.815 349.873 330.815Z" fill="#7A97F4"/>
<path d="M189.12 302.11H60.0212C56.7627 302.11 53.5042 303.196 50.8663 305.213L1.21301 344.16C-1.11449 346.022 0.12685 349.746 3.07502 349.746H139.467C142.88 349.746 146.294 348.349 148.777 346.022L190.516 305.678C191.913 304.437 190.982 302.11 189.12 302.11Z" fill="#7A97F4"/>
<path d="M701.325 302.11H572.071C568.813 302.11 565.554 303.196 562.916 305.213L513.263 344.16C510.936 346.022 512.177 349.746 515.125 349.746H651.517C654.93 349.746 658.344 348.349 660.827 346.022L702.566 305.678C704.118 304.437 703.187 302.11 701.325 302.11Z" fill="#7A97F4"/>
<path d="M349.873 284.731C275.858 284.731 215.809 300.403 215.809 319.488C215.809 338.729 275.858 354.401 349.873 354.401C415.818 354.401 470.747 341.987 481.919 325.695C483.316 323.678 483.937 321.661 483.937 319.643C483.937 300.403 423.887 284.731 349.873 284.731ZM349.873 324.454C307.202 324.454 272.755 319.333 272.755 312.971C272.755 312.971 272.755 312.816 272.755 312.506C272.755 312.351 272.755 312.351 272.91 312.195C272.91 312.195 272.91 312.04 273.065 312.04C276.013 306.144 309.374 301.489 349.873 301.489C388.975 301.489 421.249 305.834 426.215 311.42C426.68 311.885 426.835 312.351 426.835 312.816V312.971C426.99 319.333 392.388 324.454 349.873 324.454Z" fill="#FF97C9"/>
<path d="M481.919 325.695C470.747 341.987 415.974 354.401 349.873 354.401C275.858 354.401 215.809 338.729 215.809 319.488C215.809 319.488 239.084 347.573 345.218 347.573C436.456 347.729 473.23 330.505 481.919 325.695Z" fill="#F774B9"/>
<path d="M426.215 311.42C421.094 305.834 388.819 301.489 349.873 301.489C309.219 301.489 276.013 306.144 273.065 312.04C274.462 308.627 283.772 296.834 349.873 296.834C410.698 296.834 423.577 307.385 426.215 311.42Z" fill="#F774B9"/>
<path d="M190.206 302.11L163.052 107.841C162.742 105.824 161.035 104.272 158.862 104.272H122.243C119.76 104.272 117.743 106.444 118.054 109.082L127.208 182.476C127.519 185.424 125.346 187.907 122.398 187.907H80.5032C77.8654 187.907 75.693 185.89 75.5379 183.252L72.1242 108.462C71.969 106.134 70.107 104.427 67.9347 104.427H33.6429C31.1602 104.427 29.2982 106.444 29.4534 108.772L34.1084 236.629C34.2635 240.664 37.6772 243.922 41.7115 243.922H134.967L142.26 302.42H190.206V302.11Z" fill="#273D7A"/>
<path d="M702.411 302.11L675.257 107.841C674.947 105.824 673.24 104.272 671.068 104.272H634.448C631.966 104.272 629.948 106.444 630.259 109.082L639.414 182.476C639.724 185.424 637.552 187.907 634.603 187.907H592.708C590.071 187.907 587.898 185.89 587.743 183.252L584.329 108.462C584.174 106.134 582.312 104.427 580.14 104.427H546.003C543.521 104.427 541.659 106.444 541.814 108.772L546.469 236.629C546.624 240.664 550.038 243.922 554.072 243.922H647.327L654.62 302.42H702.411V302.11Z" fill="#273D7A"/>
<path d="M161.964 109.858L141.482 341.987C141.171 346.332 137.447 349.746 133.103 349.746H102.38C97.2593 349.746 93.3801 345.246 94.0008 340.281L106.88 231.509L14.8658 233.06C9.74531 233.06 5.86614 228.561 6.79714 223.595L7.10748 221.578L28.2101 108.461C28.8308 105.358 31.4686 103.031 34.7271 103.031H64.0536C68.088 103.031 71.1913 106.755 70.5706 110.789L58.0021 182.166C57.5366 185.114 59.709 187.596 62.6571 187.596H106.569L116.81 108.306C117.276 105.203 119.914 102.875 123.017 102.875H155.757C159.326 103.031 162.274 106.289 161.964 109.858Z" fill="#FF97C9"/>
<path d="M107.502 221.578L106.726 231.509L14.7126 233.06C9.59211 233.06 5.71294 228.561 6.64394 223.595L6.95428 221.578H107.502V221.578Z" fill="#F774B9"/>
<path d="M161.966 109.858L141.484 341.987C141.173 346.332 137.449 349.746 133.105 349.746H128.45L152.811 103.031H155.759C159.328 103.031 162.276 106.289 161.966 109.858Z" fill="#F774B9"/>
<path d="M57.849 182.321C57.3835 185.269 59.5558 187.752 62.504 187.752H53.5043C50.2458 187.752 47.608 184.803 48.2287 181.545L62.0385 103.186H64.0557C68.09 103.186 71.1933 106.91 70.5727 110.944L57.849 182.321Z" fill="#F774B9"/>
<path d="M674.016 109.858L653.534 341.987C653.224 346.332 649.5 349.746 645.155 349.746H614.432C609.311 349.746 605.432 345.246 606.053 340.281L618.932 231.509L526.918 233.06C521.797 233.06 517.918 228.561 518.849 223.595L519.16 221.578L540.262 108.461C540.883 105.358 543.521 103.031 546.779 103.031H576.106C580.14 103.031 583.243 106.755 582.623 110.789L570.054 182.166C569.589 185.114 571.761 187.596 574.709 187.596H618.621L628.862 108.306C629.328 105.203 631.966 102.875 635.069 102.875H667.809C671.533 103.031 674.481 106.289 674.016 109.858Z" fill="#FF97C9"/>
<path d="M619.708 221.578L618.932 231.509L526.918 233.06C521.797 233.06 517.918 228.561 518.849 223.595L519.16 221.578H619.708V221.578Z" fill="#F774B9"/>
<path d="M674.016 109.858L653.534 341.987C653.223 346.332 649.499 349.746 645.155 349.746H640.5L664.861 103.031H667.809C671.533 103.031 674.481 106.289 674.016 109.858Z" fill="#F774B9"/>
<path d="M570.054 182.321C569.589 185.269 571.761 187.752 574.709 187.752H565.71C562.451 187.752 559.813 184.803 560.434 181.545L574.244 103.186H576.261C580.295 103.186 583.399 106.91 582.778 110.944L570.054 182.321Z" fill="#F774B9"/>
<path opacity="0.28" d="M288.582 157.184L256.773 318.557C255.066 327.246 260.652 335.47 268.255 335.47H436.766C444.214 335.47 449.8 327.557 448.403 319.178L422.335 157.805C421.249 151.288 416.439 146.633 410.698 146.633H300.219C294.633 146.477 289.823 150.977 288.582 157.184Z" fill="#FF97C9"/>
<path d="M432.266 167.27L447.627 218.32C447.938 219.406 449.024 220.026 450.11 219.561C450.886 219.251 451.507 218.32 451.196 217.389L441.11 165.097C440.49 162.304 437.386 160.753 434.749 161.839C432.731 162.77 431.645 164.942 432.266 167.27Z" fill="#FEC272"/>
<path d="M403.25 185.735L413.181 225.147C413.336 225.923 414.112 226.233 414.732 226.078C415.353 225.923 415.663 225.302 415.508 224.682L409.146 184.493C408.836 182.631 406.819 181.39 404.957 182.166C403.715 182.786 402.94 184.183 403.25 185.735Z" fill="#FEC272"/>
<path d="M273.841 172.235L260.962 211.492C260.807 212.268 259.876 212.578 259.255 212.268C258.635 211.958 258.324 211.337 258.479 210.716L267.789 170.528C268.255 168.666 270.427 167.58 272.134 168.356C273.686 169.132 274.306 170.683 273.841 172.235Z" fill="#FEC272"/>
<path d="M299.443 184.338L282.686 257.266C282.53 258.042 281.755 258.353 281.134 258.197C280.513 258.042 280.203 257.422 280.358 256.801L293.547 183.097C293.857 181.235 295.875 179.993 297.737 180.769C299.133 181.235 299.909 182.786 299.443 184.338Z" fill="#FEC272"/>
<path d="M334.977 192.872L326.908 245.784C326.753 246.56 325.977 247.025 325.356 246.715C324.736 246.56 324.425 245.939 324.425 245.319L328.77 191.941C329.08 190.079 330.942 188.838 332.804 189.459C334.356 189.769 335.287 191.321 334.977 192.872Z" fill="#FEC272"/>
<path d="M376.561 191.786L378.579 275.731C378.579 276.507 377.958 276.973 377.182 276.973C376.561 276.817 376.096 276.352 376.096 275.731L370.355 191.786C370.355 189.769 372.062 188.372 373.924 188.683C375.475 188.993 376.561 190.39 376.561 191.786Z" fill="#FEC272"/>
<path d="M215.343 115.599C213.636 113.582 212.395 111.565 211.464 109.548L207.895 85.6521L216.119 93.2553L215.343 115.599Z" fill="#738DE0"/>
<path d="M446.852 123.668C446.852 123.668 441.731 134.374 430.559 146.322C416.594 161.218 393.009 178.131 357.941 178.131C333.27 178.131 314.96 169.907 301.926 159.977C281.444 144.46 273.375 124.599 273.375 124.599L446.852 123.668Z" fill="#273D7A"/>
<path d="M446.852 123.668C446.852 123.668 441.731 134.374 430.559 146.322C418.611 150.977 403.871 154.856 385.561 157.339C349.562 162.149 321.477 161.839 301.926 159.977C281.444 144.46 273.375 124.599 273.375 124.599L446.852 123.668Z" fill="#072359"/>
<path d="M501.47 84.721C501.47 84.721 500.539 94.4965 497.436 106.599C496.97 108.306 496.195 110.323 494.953 112.185C491.695 117.461 485.488 123.202 475.402 128.633C473.695 129.564 471.678 130.495 469.661 131.426C468.109 132.202 466.558 132.823 464.851 133.598C462.523 134.529 460.196 135.46 457.713 136.391C449.024 139.495 438.783 142.133 426.68 144.615C425.749 144.77 424.973 144.926 424.042 145.081C421.715 145.546 418.922 145.857 415.973 146.167C403.56 147.564 387.112 148.494 369.579 148.805C366.32 148.805 363.062 148.96 359.803 148.96C343.2 149.115 326.442 148.65 311.857 147.874C308.753 147.719 305.65 147.563 302.857 147.253C294.323 146.632 286.875 145.702 281.444 144.615C273.53 143.064 266.393 141.357 260.031 139.495C257.393 138.719 254.91 137.943 252.428 137.167C233.187 130.805 221.55 123.047 215.498 115.909C214.567 114.823 213.791 113.892 213.171 112.806C212.55 111.875 211.929 110.789 211.619 109.858C211.153 108.772 210.688 107.841 210.533 106.755C209.136 101.013 208.05 95.1171 207.585 90.6173C206.964 85.4968 206.809 82.0831 206.809 82.0831L354.217 93.1L501.625 84.8761L501.47 84.721Z" fill="#99ADF9"/>
<path d="M501.315 84.4106C501.315 85.4968 500.539 86.8933 499.143 88.6001C495.264 93.0999 485.954 99.7721 470.127 105.824C468.11 106.599 465.937 107.375 463.61 108.151C462.524 108.461 461.437 108.927 460.351 109.237C458.024 110.013 455.541 110.789 452.903 111.41C444.059 113.892 433.818 116.22 422.025 117.927C419.232 118.392 416.284 118.858 413.181 119.168C400.147 120.875 385.561 121.961 369.268 122.271C366.165 122.271 362.907 122.426 359.648 122.426H359.493C342.89 122.426 327.529 121.651 313.719 120.409C310.615 120.099 307.512 119.789 304.564 119.478C289.358 117.771 275.858 115.289 264.221 112.496C261.583 111.875 258.945 111.099 256.462 110.479C233.342 104.117 218.136 96.2033 211.154 89.6863C209.757 88.4449 208.671 87.0484 207.895 85.9623C206.964 84.5658 206.499 83.3244 206.499 82.0831C206.499 71.0663 249.945 47.6361 360.269 47.6361C470.592 47.4809 501.315 76.8074 501.315 84.4106Z" fill="#273D7A"/>
<path d="M296.65 60.2046L215.964 93.2552C212.86 91.238 208.516 86.8933 207.74 85.652L294.013 58.8081L296.65 60.2046Z" fill="#072359"/>
<path d="M501.315 84.5658C501.315 85.4968 500.539 86.8933 499.143 88.6001L416.284 60.2046L418.922 58.9633L501.315 84.5658Z" fill="#072359"/>
<path d="M310.305 68.7389L264.221 112.341C261.583 111.72 258.945 110.944 256.462 110.324L307.512 68.5837L310.305 68.7389Z" fill="#072359"/>
<path d="M335.597 73.8593L313.719 120.409C310.615 120.099 307.512 119.789 304.564 119.478L332.804 73.7041L335.597 73.8593Z" fill="#072359"/>
<path d="M422.18 118.082C419.387 118.547 416.284 119.013 413.336 119.323L391.923 73.8593L394.871 73.7041L422.18 118.082Z" fill="#072359"/>
<path d="M369.268 122.427C366.165 122.427 362.906 122.582 359.648 122.582H359.493L363.217 76.8075L366.165 76.6523L369.268 122.427Z" fill="#072359"/>
<path d="M469.972 105.824C467.954 106.6 465.782 107.375 463.455 108.151L407.75 68.7389L410.698 68.5837L469.972 105.824Z" fill="#072359"/>
<path d="M369.424 148.494C366.165 148.494 362.907 148.65 359.648 148.65V122.426L369.268 122.271L369.424 148.494Z" fill="#738DE0"/>
<path d="M423.732 144.77C421.249 145.236 418.611 145.546 415.663 145.857L413.181 119.168L422.025 117.927L423.732 144.77Z" fill="#738DE0"/>
<path d="M475.247 128.478C473.541 129.409 471.523 130.34 469.506 131.271L463.61 107.996L469.972 105.824L475.247 128.478Z" fill="#738DE0"/>
<path d="M313.719 120.409L311.857 147.563C308.753 147.408 305.65 147.253 302.857 146.943L304.719 119.478L313.719 120.409Z" fill="#738DE0"/>
<path d="M264.221 112.341L259.876 139.185C257.238 138.409 254.755 137.633 252.273 136.857L256.307 110.323L264.221 112.341Z" fill="#738DE0"/>
<path d="M216.119 93.5655L213.015 112.651C212.395 111.72 211.774 110.634 211.464 109.703C210.998 108.617 210.533 107.686 210.378 106.6C208.981 100.858 207.895 94.962 207.429 90.4621L207.895 85.8071C207.895 85.8071 210.533 88.9105 211.619 89.9966C212.55 90.9276 216.119 93.5655 216.119 93.5655Z" fill="#738DE0"/>
<path d="M352.976 95.2722C398.652 95.2722 435.68 84.7822 435.68 71.8421C435.68 58.902 398.652 48.412 352.976 48.412C307.3 48.412 270.272 58.902 270.272 71.8421C270.272 84.7822 307.3 95.2722 352.976 95.2722Z" fill="#072359"/>
<path d="M428.542 68.1181C428.542 68.1181 422.491 74.9455 407.595 80.8418C396.578 85.1865 380.751 88.9105 359.027 88.9105C347.08 88.9105 336.683 87.8243 327.994 86.1175C298.978 80.5315 286.409 68.4285 286.409 68.4285C286.409 68.4285 292.771 21.2578 332.494 5.27568C340.563 2.01718 350.183 0 361.355 0C415.974 0 428.542 68.1181 428.542 68.1181Z" fill="#99ADF9"/>
<path d="M327.994 86.1175C298.978 80.5315 286.409 68.4285 286.409 68.4285C286.409 68.4285 292.771 21.2578 332.494 5.27563C324.736 11.7926 317.132 24.8267 315.891 46.0845C314.65 61.9115 318.374 75.1007 327.994 86.1175Z" fill="#7A97F4"/>
<path d="M428.542 68.1181C428.542 68.1181 422.491 74.9455 407.595 80.8418C405.267 72.1525 401.698 64.3941 401.698 64.3941C401.698 64.3941 387.113 67.4975 380.596 53.6876C374.079 39.8778 389.75 29.9472 389.75 29.9472C389.75 29.9472 386.026 17.9993 366.786 10.241C347.545 2.48267 332.184 5.27568 332.184 5.27568C340.252 2.01718 349.873 0 361.045 0C415.974 0 428.542 68.1181 428.542 68.1181Z" fill="#C2D1FF"/>
<path d="M366.01 38.9469C368.324 38.9469 370.199 37.1406 370.199 34.9125C370.199 32.6844 368.324 30.8782 366.01 30.8782C363.696 30.8782 361.82 32.6844 361.82 34.9125C361.82 37.1406 363.696 38.9469 366.01 38.9469Z" fill="#C2D1FF"/>
<path d="M351.424 42.826C353.224 42.826 354.683 41.4366 354.683 39.7227C354.683 38.0088 353.224 36.6194 351.424 36.6194C349.625 36.6194 348.166 38.0088 348.166 39.7227C348.166 41.4366 349.625 42.826 351.424 42.826Z" fill="#C2D1FF"/>
<path d="M361.2 63.7734C364.713 63.7734 367.561 60.9946 367.561 57.5668C367.561 54.1389 364.713 51.3601 361.2 51.3601C357.686 51.3601 354.838 54.1389 354.838 57.5668C354.838 60.9946 357.686 63.7734 361.2 63.7734Z" fill="#C2D1FF"/>
</svg>
